<?xml version="1.0" encoding="utf-8"?>
<!-- Generator: Adobe Illustrator 15.0.0, SVG Export Plug-In . SVG Version: 6.00 Build 0)  -->
<!DOCTYPE svg PUBLIC "-//W3C//DTD SVG 1.1//EN" "http://www.w3.org/Graphics/SVG/1.1/DTD/svg11.dtd">
<svg version="1.1" id="_x3C_Layer_x3E_" xmlns="http://www.w3.org/2000/svg" xmlns:xlink="http://www.w3.org/1999/xlink" x="0px"
	 y="0px" width="27px" height="27px" viewBox="0 0 9.563 9.688" enable-background="new 0 0 9.563 9.688"
	 xml:space="preserve">
<g>
	<path fill="#fff" d="M9.047,7.914c0.156,0.172,0.234,0.375,0.234,0.609s-0.078,0.43-0.234,0.586S8.695,9.344,8.461,9.344
		S8.023,9.266,7.852,9.109l-3.07-3.07l-3.07,3.07C1.539,9.266,1.344,9.344,1.125,9.344S0.711,9.266,0.539,9.109
		S0.281,8.758,0.281,8.523s0.086-0.438,0.258-0.609l3.047-3.07l-3.047-3.07C0.367,1.602,0.281,1.398,0.281,1.164
		s0.086-0.43,0.258-0.586s0.367-0.234,0.586-0.234s0.414,0.078,0.586,0.234l3.07,3.07l3.07-3.07
		c0.172-0.156,0.375-0.234,0.609-0.234s0.43,0.078,0.586,0.234S9.281,0.93,9.281,1.164S9.203,1.602,9.047,1.773l-3.07,3.07
		L9.047,7.914z"/>
</g>
</svg>
